<svg xmlns="http://www.w3.org/2000/svg" xmlns:xlink="http://www.w3.org/1999/xlink" width="268.09" height="215" viewBox="0 0 268.09 215">
  <defs>
    <clipPath id="clip-path">
      <circle id="Ellipse_3" data-name="Ellipse 3" cx="63.608" cy="63.608" r="63.608"/>
    </clipPath>
    <clipPath id="clip-Web_1920_3">
      <rect width="268.09" height="215"/>
    </clipPath>
  </defs>
  <g id="Web_1920_3" data-name="Web 1920 – 3" clip-path="url(#clip-Web_1920_3)">
    <path id="Path_1" data-name="Path 1" d="M36.6-463.441v-36.868H48.981a10.7,10.7,0,0,1,5.462,1.252,7.644,7.644,0,0,1,3.186,3.641,14.429,14.429,0,0,1,1.047,5.8,12.394,12.394,0,0,1-1.411,6.532,7.335,7.335,0,0,1-3.823,3.118,15.972,15.972,0,0,1-5.416.865H44.747v15.658Zm8.147-21.347h2.731a3.937,3.937,0,0,0,2.276-.546,2.632,2.632,0,0,0,1.024-1.639,12.753,12.753,0,0,0,.25-2.777,13.313,13.313,0,0,0-.2-2.481,2.818,2.818,0,0,0-.979-1.707,3.76,3.76,0,0,0-2.412-.637H44.747Zm17.478,21.347v-36.868H78.794v5.553H70.373v9.149h6.418v5.644H70.373v11.015h8.512v5.508Zm20.346,0v-36.868H99.14v5.553H90.719v9.149h6.418v5.644H90.719v11.015h8.512v5.508Zm20.346,0v-36.868h10.15a22.622,22.622,0,0,1,6.463.819,7.84,7.84,0,0,1,4.256,2.936,10.116,10.116,0,0,1,1.525,5.985,20.283,20.283,0,0,1-.364,4.051,7.539,7.539,0,0,1-1.343,3.072,7.384,7.384,0,0,1-2.8,2.162l5.052,17.842h-8.421l-4.051-16.523h-2.321v16.523Zm8.147-21.211h2.276a4.955,4.955,0,0,0,2.685-.615,3.259,3.259,0,0,0,1.343-1.775,8.906,8.906,0,0,0,.387-2.8,6.693,6.693,0,0,0-.865-3.687,3.525,3.525,0,0,0-3.186-1.32h-2.64ZM141.7-463.441v-36.868h10.15a22.623,22.623,0,0,1,6.463.819,7.84,7.84,0,0,1,4.256,2.936,10.116,10.116,0,0,1,1.525,5.985,20.282,20.282,0,0,1-.364,4.051,7.539,7.539,0,0,1-1.343,3.072,7.384,7.384,0,0,1-2.8,2.162l5.052,17.842h-8.421l-4.051-16.523h-2.321v16.523Zm8.147-21.211h2.276a4.955,4.955,0,0,0,2.685-.615,3.259,3.259,0,0,0,1.343-1.775,8.907,8.907,0,0,0,.387-2.8,6.693,6.693,0,0,0-.865-3.687,3.525,3.525,0,0,0-3.186-1.32h-2.64Zm18.98,21.211v-36.868h16.568v5.553h-8.421v9.149h6.418v5.644h-6.418v11.015h8.512v5.508Zm25.262,0-6.645-36.868h6.964l3.96,25.034,3.687-25.034h7.374l-6.736,36.868Zm19.071,0v-36.868h8.147v36.868Zm13.655,0v-36.868h16.568v5.553h-8.421v9.149h6.418v5.644h-6.418v11.015h8.512v5.508Zm23.3,0-4.461-36.868h6.919l2.185,21.484,2.777-21.438h5.416l2.913,21.3,2.23-21.347h6.827l-4.415,36.868h-7.1L260.268-485.7l-2.959,22.258Zm38.37.546a12.255,12.255,0,0,1-5.781-1.229,7.866,7.866,0,0,1-3.5-3.8,17.473,17.473,0,0,1-1.32-6.668l6.964-1.047a16.611,16.611,0,0,0,.432,3.823,4.238,4.238,0,0,0,1.092,2.094,2.457,2.457,0,0,0,1.707.637,1.624,1.624,0,0,0,1.661-.865,4.409,4.409,0,0,0,.387-1.821,6.569,6.569,0,0,0-1.092-3.846,17.071,17.071,0,0,0-2.959-3.163l-3.186-2.776a17.767,17.767,0,0,1-3.528-4.028,10.187,10.187,0,0,1-1.434-5.576q0-4.688,2.776-7.169a10.928,10.928,0,0,1,7.556-2.481,9.758,9.758,0,0,1,4.756,1,6.991,6.991,0,0,1,2.731,2.617,10.818,10.818,0,0,1,1.274,3.414,21.666,21.666,0,0,1,.387,3.437l-7.01.865a28,28,0,0,0-.2-2.845,3.912,3.912,0,0,0-.66-1.866,1.818,1.818,0,0,0-1.548-.66,1.76,1.76,0,0,0-1.661.956,3.949,3.949,0,0,0-.523,1.912,5.405,5.405,0,0,0,.979,3.345,18.946,18.946,0,0,0,2.572,2.708l3.05,2.685a20.74,20.74,0,0,1,4.074,4.643,11.669,11.669,0,0,1,1.661,6.418,9.486,9.486,0,0,1-1.183,4.711,8.646,8.646,0,0,1-3.345,3.345A10.193,10.193,0,0,1,288.489-462.895Z" transform="translate(-33.546 641.512)"/>
    <path id="Path_2" data-name="Path 2" d="M16.54-189.267a4.512,4.512,0,0,1-2.6-.653,3.4,3.4,0,0,1-1.315-1.781,8.289,8.289,0,0,1-.373-2.6v-5.391a8.649,8.649,0,0,1,.373-2.686,3.221,3.221,0,0,1,1.315-1.754,4.724,4.724,0,0,1,2.6-.616,4.773,4.773,0,0,1,2.453.532,2.924,2.924,0,0,1,1.259,1.52,6.48,6.48,0,0,1,.373,2.294v1.269H17.977v-1.306a9.373,9.373,0,0,0-.065-1.157,1.436,1.436,0,0,0-.354-.83,1.331,1.331,0,0,0-1-.308,1.416,1.416,0,0,0-1.035.326,1.573,1.573,0,0,0-.42.877,7.468,7.468,0,0,0-.093,1.241v6.566a5.811,5.811,0,0,0,.131,1.352,1.4,1.4,0,0,0,.476.8,1.489,1.489,0,0,0,.942.27,1.255,1.255,0,0,0,.979-.326,1.6,1.6,0,0,0,.364-.867,8.931,8.931,0,0,0,.075-1.213v-1.362h2.649v1.213a7.332,7.332,0,0,1-.354,2.378,3.092,3.092,0,0,1-1.241,1.623A4.483,4.483,0,0,1,16.54-189.267Zm9.1-.037a3.861,3.861,0,0,1-1.94-.438,2.737,2.737,0,0,1-1.147-1.278,4.883,4.883,0,0,1-.382-2.033v-3.619a4.883,4.883,0,0,1,.382-2.033,2.737,2.737,0,0,1,1.147-1.278,3.861,3.861,0,0,1,1.94-.438,3.915,3.915,0,0,1,1.949.438,2.724,2.724,0,0,1,1.157,1.278,4.883,4.883,0,0,1,.382,2.033v3.619a4.883,4.883,0,0,1-.382,2.033,2.724,2.724,0,0,1-1.157,1.278A3.915,3.915,0,0,1,25.644-189.3Zm.019-1.754a.785.785,0,0,0,.634-.243,1.261,1.261,0,0,0,.261-.662,7.016,7.016,0,0,0,.056-.923v-3.955a6.8,6.8,0,0,0-.056-.914,1.306,1.306,0,0,0-.261-.662.77.77,0,0,0-.634-.252.77.77,0,0,0-.634.252,1.368,1.368,0,0,0-.27.662,5.846,5.846,0,0,0-.065.914v3.955a6.028,6.028,0,0,0,.065.923,1.319,1.319,0,0,0,.27.662A.785.785,0,0,0,25.662-191.058Zm7.63,1.754a2.254,2.254,0,0,1-1.949-.914,5.068,5.068,0,0,1-.662-2.929v-3.3a7.442,7.442,0,0,1,.252-2.015,3.061,3.061,0,0,1,.811-1.427,2.1,2.1,0,0,1,1.511-.532,2.482,2.482,0,0,1,1.073.233,3.66,3.66,0,0,1,.9.606v-5h2.537v15.11H35.232v-.765a3.72,3.72,0,0,1-.914.681A2.2,2.2,0,0,1,33.292-189.3Zm.933-1.754a1.407,1.407,0,0,0,.466-.093,3.056,3.056,0,0,0,.541-.261v-6.921a2.556,2.556,0,0,0-.485-.252,1.467,1.467,0,0,0-.541-.1.762.762,0,0,0-.756.494,3.018,3.018,0,0,0-.215,1.2v4.029a5.7,5.7,0,0,0,.075.97,1.4,1.4,0,0,0,.289.681A.775.775,0,0,0,34.225-191.058Zm8.73,1.754a3.815,3.815,0,0,1-1.977-.457,2.711,2.711,0,0,1-1.129-1.343,5.62,5.62,0,0,1-.364-2.136v-3.246a5.66,5.66,0,0,1,.364-2.164,2.653,2.653,0,0,1,1.138-1.324,3.89,3.89,0,0,1,1.968-.448,3.554,3.554,0,0,1,2.005.485,2.645,2.645,0,0,1,1.026,1.408,7.164,7.164,0,0,1,.308,2.248v1.53H42v2.127a3,3,0,0,0,.1.858.856.856,0,0,0,.326.485.953.953,0,0,0,.541.149.861.861,0,0,0,.541-.159.9.9,0,0,0,.3-.466,2.715,2.715,0,0,0,.093-.774v-.9h2.369v.728a3.55,3.55,0,0,1-.821,2.518A3.268,3.268,0,0,1,42.955-189.3ZM42-196h1.9v-1.026a3.573,3.573,0,0,0-.093-.9.913.913,0,0,0-.3-.5.927.927,0,0,0-.578-.159.827.827,0,0,0-.541.168,1,1,0,0,0-.3.56A5.125,5.125,0,0,0,42-196.747Zm10.708,6.529v-15.11H56.33a7.982,7.982,0,0,1,2.584.364,2.968,2.968,0,0,1,1.6,1.241,4.465,4.465,0,0,1,.55,2.388,7.324,7.324,0,0,1-.168,1.642,3.124,3.124,0,0,1-.569,1.241,2.565,2.565,0,0,1-1.11.793l2.108,7.443H58.569l-1.828-6.921H55.472v6.921Zm2.761-8.656h.858a2.932,2.932,0,0,0,1.278-.233,1.362,1.362,0,0,0,.681-.746,3.581,3.581,0,0,0,.205-1.315,2.866,2.866,0,0,0-.42-1.707,1.876,1.876,0,0,0-1.595-.569H55.472Zm10.8,8.824a3.815,3.815,0,0,1-1.977-.457,2.711,2.711,0,0,1-1.129-1.343,5.62,5.62,0,0,1-.364-2.136v-3.246a5.66,5.66,0,0,1,.364-2.164,2.653,2.653,0,0,1,1.138-1.324,3.89,3.89,0,0,1,1.968-.448,3.554,3.554,0,0,1,2.005.485,2.645,2.645,0,0,1,1.026,1.408,7.163,7.163,0,0,1,.308,2.248v1.53h-4.29v2.127a3,3,0,0,0,.1.858.856.856,0,0,0,.326.485.953.953,0,0,0,.541.149.861.861,0,0,0,.541-.159.9.9,0,0,0,.3-.466,2.715,2.715,0,0,0,.093-.774v-.9h2.369v.728a3.55,3.55,0,0,1-.821,2.518A3.268,3.268,0,0,1,66.273-189.3Zm-.951-6.7h1.9v-1.026a3.573,3.573,0,0,0-.093-.9.913.913,0,0,0-.3-.5.927.927,0,0,0-.578-.159.827.827,0,0,0-.541.168,1,1,0,0,0-.3.56,5.126,5.126,0,0,0-.093,1.119Zm7.406,6.529-2.145-10.782h2.481l1.1,7.742,1.082-7.742h2.444l-2.145,10.782Zm6.212,0v-10.782h2.537v10.782Zm0-12.5v-2.108h2.537v2.108ZM86.755-189.3a3.815,3.815,0,0,1-1.977-.457,2.711,2.711,0,0,1-1.129-1.343,5.62,5.62,0,0,1-.364-2.136v-3.246a5.66,5.66,0,0,1,.364-2.164,2.653,2.653,0,0,1,1.138-1.324,3.89,3.89,0,0,1,1.968-.448,3.554,3.554,0,0,1,2.005.485,2.645,2.645,0,0,1,1.026,1.408,7.163,7.163,0,0,1,.308,2.248v1.53H85.8v2.127a3,3,0,0,0,.1.858.856.856,0,0,0,.326.485.953.953,0,0,0,.541.149.861.861,0,0,0,.541-.159.9.9,0,0,0,.3-.466,2.715,2.715,0,0,0,.093-.774v-.9h2.369v.728a3.55,3.55,0,0,1-.821,2.518A3.268,3.268,0,0,1,86.755-189.3ZM85.8-196h1.9v-1.026a3.573,3.573,0,0,0-.093-.9.913.913,0,0,0-.3-.5.927.927,0,0,0-.578-.159.827.827,0,0,0-.541.168,1,1,0,0,0-.3.56,5.125,5.125,0,0,0-.093,1.119Zm7.145,6.529-1.66-10.782H93.4l.951,7,1.119-7h1.884l1.063,7.07,1.026-7.07h2l-1.7,10.782H97.594L96.4-196.281l-1.25,6.809Zm12.853.168a3.388,3.388,0,0,1-2.239-.728,4.009,4.009,0,0,1-1.25-2.127l1.884-.728a3.562,3.562,0,0,0,.6,1.343,1.184,1.184,0,0,0,.97.466.912.912,0,0,0,.672-.224.832.832,0,0,0,.224-.616,1.327,1.327,0,0,0-.27-.811,5.8,5.8,0,0,0-.923-.9l-1.306-1.1a6.643,6.643,0,0,1-1.147-1.259,2.8,2.8,0,0,1-.438-1.614,2.721,2.721,0,0,1,.4-1.5,2.693,2.693,0,0,1,1.1-.97,3.472,3.472,0,0,1,1.558-.345,2.875,2.875,0,0,1,2.1.774,3.639,3.639,0,0,1,1.017,2.024l-1.66.709a3.821,3.821,0,0,0-.27-.83,1.831,1.831,0,0,0-.457-.625.966.966,0,0,0-.653-.243.827.827,0,0,0-.625.243.852.852,0,0,0-.233.616,1.052,1.052,0,0,0,.27.653,6.014,6.014,0,0,0,.774.765l1.324,1.194a9.971,9.971,0,0,1,.821.8,4.093,4.093,0,0,1,.653.961,2.737,2.737,0,0,1,.261,1.222,2.778,2.778,0,0,1-.42,1.567,2.646,2.646,0,0,1-1.138.961A3.81,3.81,0,0,1,105.8-189.3Zm54.564-.168v-15.11h3.563a6.713,6.713,0,0,1,2.882.5,2.937,2.937,0,0,1,1.474,1.548,6.892,6.892,0,0,1,.438,2.649v5.522a7.378,7.378,0,0,1-.438,2.733A3.055,3.055,0,0,1,166.829-190a6.079,6.079,0,0,1-2.789.532Zm2.761-1.921h.839a2.165,2.165,0,0,0,1.362-.336,1.483,1.483,0,0,0,.5-.979,11.24,11.24,0,0,0,.093-1.576v-5.783a6.712,6.712,0,0,0-.131-1.474,1.261,1.261,0,0,0-.541-.821,2.553,2.553,0,0,0-1.324-.261h-.8Zm10.726,2.089a3.815,3.815,0,0,1-1.977-.457,2.711,2.711,0,0,1-1.129-1.343,5.62,5.62,0,0,1-.364-2.136v-3.246a5.66,5.66,0,0,1,.364-2.164,2.653,2.653,0,0,1,1.138-1.324,3.89,3.89,0,0,1,1.968-.448,3.554,3.554,0,0,1,2.005.485,2.645,2.645,0,0,1,1.026,1.408,7.163,7.163,0,0,1,.308,2.248v1.53H172.9v2.127a3,3,0,0,0,.1.858.856.856,0,0,0,.326.485.953.953,0,0,0,.541.149.861.861,0,0,0,.541-.159.9.9,0,0,0,.3-.466,2.714,2.714,0,0,0,.093-.774v-.9h2.369v.728a3.55,3.55,0,0,1-.821,2.518A3.268,3.268,0,0,1,173.853-189.3ZM172.9-196h1.9v-1.026a3.572,3.572,0,0,0-.093-.9.913.913,0,0,0-.3-.5.927.927,0,0,0-.578-.159.827.827,0,0,0-.541.168,1,1,0,0,0-.3.56,5.125,5.125,0,0,0-.093,1.119Zm8.935,6.7a3.388,3.388,0,0,1-2.239-.728,4.009,4.009,0,0,1-1.25-2.127l1.884-.728a3.562,3.562,0,0,0,.6,1.343,1.184,1.184,0,0,0,.97.466.912.912,0,0,0,.672-.224.832.832,0,0,0,.224-.616,1.327,1.327,0,0,0-.27-.811,5.8,5.8,0,0,0-.923-.9l-1.306-1.1a6.644,6.644,0,0,1-1.147-1.259,2.8,2.8,0,0,1-.438-1.614,2.721,2.721,0,0,1,.4-1.5,2.693,2.693,0,0,1,1.1-.97,3.473,3.473,0,0,1,1.558-.345,2.875,2.875,0,0,1,2.1.774,3.639,3.639,0,0,1,1.017,2.024l-1.66.709a3.82,3.82,0,0,0-.27-.83,1.83,1.83,0,0,0-.457-.625.966.966,0,0,0-.653-.243.827.827,0,0,0-.625.243.852.852,0,0,0-.233.616,1.052,1.052,0,0,0,.27.653,6.016,6.016,0,0,0,.774.765l1.324,1.194a9.974,9.974,0,0,1,.821.8,4.093,4.093,0,0,1,.653.961,2.737,2.737,0,0,1,.261,1.222,2.778,2.778,0,0,1-.42,1.567,2.646,2.646,0,0,1-1.138.961A3.81,3.81,0,0,1,181.837-189.3Zm4.608-.168v-10.782h2.537v10.782Zm0-12.5v-2.108h2.537v2.108Zm7.723,16.043a7.563,7.563,0,0,1-1.94-.224,2.84,2.84,0,0,1-1.306-.69,1.64,1.64,0,0,1-.466-1.213,1.888,1.888,0,0,1,.215-.9,2.25,2.25,0,0,1,.588-.7,4.138,4.138,0,0,1,.8-.5,1.865,1.865,0,0,1-.942-.541,1.314,1.314,0,0,1-.326-.9,1.823,1.823,0,0,1,.317-1.082,5.94,5.94,0,0,1,.877-.951,2.891,2.891,0,0,1-.867-1.166,4.882,4.882,0,0,1-.289-1.837,4.847,4.847,0,0,1,.4-2.08,2.766,2.766,0,0,1,1.175-1.278,3.857,3.857,0,0,1,1.893-.429,3.6,3.6,0,0,1,1.436.252,2.312,2.312,0,0,1,.951.756,3.289,3.289,0,0,1,.522-.56,3.406,3.406,0,0,1,.858-.56l.336-.149.616,1.362q-.205.056-.55.187t-.681.28a5.029,5.029,0,0,0-.522.261,4.405,4.405,0,0,1,.28.933,5.427,5.427,0,0,1,.112,1.063,5.059,5.059,0,0,1-.354,1.977,2.732,2.732,0,0,1-1.091,1.3,3.582,3.582,0,0,1-1.912.457,4.428,4.428,0,0,1-.765-.065,6.3,6.3,0,0,1-.69-.159q-.112.168-.215.354a.8.8,0,0,0-.1.392.384.384,0,0,0,.224.336,2,2,0,0,0,.746.187l2.276.224a2.927,2.927,0,0,1,1.959.83,2.713,2.713,0,0,1,.634,1.893,2.848,2.848,0,0,1-.438,1.623,2.673,2.673,0,0,1-1.362.989A7.141,7.141,0,0,1,194.167-185.928Zm.28-1.9a4.528,4.528,0,0,0,1.567-.205.746.746,0,0,0,.522-.746.828.828,0,0,0-.131-.485.94.94,0,0,0-.466-.308,4,4,0,0,0-.951-.177l-1.847-.168a3.24,3.24,0,0,0-.364.345,1.507,1.507,0,0,0-.252.382,1.025,1.025,0,0,0-.093.429.748.748,0,0,0,.448.7A3.7,3.7,0,0,0,194.447-187.831Zm-.149-6.66a1.056,1.056,0,0,0,.541-.121.782.782,0,0,0,.317-.392,2.358,2.358,0,0,0,.149-.681q.037-.41.037-.951t-.037-.951a2.75,2.75,0,0,0-.14-.69.786.786,0,0,0-.308-.41,1.035,1.035,0,0,0-.56-.131,1.045,1.045,0,0,0-.55.131.77.77,0,0,0-.317.4,2.859,2.859,0,0,0-.149.681,8.732,8.732,0,0,0-.047.97q0,.522.037.923a2.337,2.337,0,0,0,.149.672.87.87,0,0,0,.326.41A.99.99,0,0,0,194.3-194.49Zm5.447,5.018v-10.782h2.537v1.082a5.5,5.5,0,0,1,1.222-.9,2.9,2.9,0,0,1,1.39-.345,1.61,1.61,0,0,1,1.063.326,1.91,1.91,0,0,1,.578.867,3.583,3.583,0,0,1,.187,1.175v8.581h-2.537v-8.077a1.523,1.523,0,0,0-.149-.746.608.608,0,0,0-.578-.261,1.316,1.316,0,0,0-.569.149,3.707,3.707,0,0,0-.606.373v8.562Zm17.61.205a4.512,4.512,0,0,1-2.6-.653,3.4,3.4,0,0,1-1.315-1.781,8.289,8.289,0,0,1-.373-2.6v-5.391a8.65,8.65,0,0,1,.373-2.686,3.221,3.221,0,0,1,1.315-1.754,4.724,4.724,0,0,1,2.6-.616,4.773,4.773,0,0,1,2.453.532,2.923,2.923,0,0,1,1.259,1.52,6.48,6.48,0,0,1,.373,2.294v1.269h-2.649v-1.306a9.375,9.375,0,0,0-.065-1.157,1.435,1.435,0,0,0-.354-.83,1.331,1.331,0,0,0-1-.308,1.416,1.416,0,0,0-1.035.326,1.573,1.573,0,0,0-.42.877,7.467,7.467,0,0,0-.093,1.241v6.566a5.811,5.811,0,0,0,.131,1.352,1.4,1.4,0,0,0,.476.8,1.489,1.489,0,0,0,.942.27,1.255,1.255,0,0,0,.979-.326,1.605,1.605,0,0,0,.364-.867,8.928,8.928,0,0,0,.075-1.213v-1.362h2.649v1.213a7.332,7.332,0,0,1-.354,2.378,3.092,3.092,0,0,1-1.241,1.623A4.483,4.483,0,0,1,217.354-189.267Zm5.895-.205v-10.782h2.537v1.66a4.64,4.64,0,0,1,1.119-1.371,2.006,2.006,0,0,1,1.231-.42,1.8,1.8,0,0,1,.2.009q.084.009.2.028v2.63a3.3,3.3,0,0,0-.494-.159,2.338,2.338,0,0,0-.55-.065,1.763,1.763,0,0,0-.914.243,2.543,2.543,0,0,0-.783.8v7.424Zm6.6,0v-10.782h2.537v10.782Zm0-12.5v-2.108h2.537v2.108Zm7.667,12.629a3.263,3.263,0,0,1-1.614-.336,1.843,1.843,0,0,1-.83-.97,4.231,4.231,0,0,1-.243-1.511v-6.417h-1.082v-1.679h1.082v-3.227h2.556v3.227h1.642v1.679h-1.642v6.193a1.07,1.07,0,0,0,.243.793,1.013,1.013,0,0,0,.728.233q.205,0,.4-.019l.382-.037v1.94l-.737.084A8.034,8.034,0,0,1,237.52-189.342Zm3.153-.131v-10.782h2.537v10.782Zm0-12.5v-2.108h2.537v2.108Zm8.935,16.043v-4.346a3.7,3.7,0,0,1-.914.709,2.17,2.17,0,0,1-1.045.261,2.23,2.23,0,0,1-1.94-.914,5.126,5.126,0,0,1-.653-2.929v-3.3a7.713,7.713,0,0,1,.242-2.015,2.959,2.959,0,0,1,.811-1.427,2.137,2.137,0,0,1,1.52-.532,2.4,2.4,0,0,1,1.073.243,3.6,3.6,0,0,1,.9.634v-.709h2.537v14.327Zm-1.007-5.13a1.487,1.487,0,0,0,.476-.093,2.475,2.475,0,0,0,.532-.261v-6.9a2.061,2.061,0,0,0-.485-.27,1.467,1.467,0,0,0-.541-.1.775.775,0,0,0-.774.494,3.017,3.017,0,0,0-.215,1.2v4.029a5.078,5.078,0,0,0,.084.97,1.465,1.465,0,0,0,.3.681A.775.775,0,0,0,248.6-191.058Zm7.2,1.754a1.626,1.626,0,0,1-1.045-.326,1.846,1.846,0,0,1-.6-.877,3.607,3.607,0,0,1-.187-1.166v-8.581h2.537v8.115a1.5,1.5,0,0,0,.159.756.623.623,0,0,0,.588.27,1.234,1.234,0,0,0,.569-.149,4.29,4.29,0,0,0,.569-.354v-8.637h2.537v10.782h-2.537V-190.5a5.012,5.012,0,0,1-1.194.858A3.015,3.015,0,0,1,255.8-189.3Zm10.353,0a3.815,3.815,0,0,1-1.977-.457,2.711,2.711,0,0,1-1.129-1.343,5.62,5.62,0,0,1-.364-2.136v-3.246a5.661,5.661,0,0,1,.364-2.164,2.653,2.653,0,0,1,1.138-1.324,3.89,3.89,0,0,1,1.968-.448,3.554,3.554,0,0,1,2.005.485,2.645,2.645,0,0,1,1.026,1.408,7.163,7.163,0,0,1,.308,2.248v1.53H265.2v2.127a3,3,0,0,0,.1.858.856.856,0,0,0,.326.485.953.953,0,0,0,.541.149.861.861,0,0,0,.541-.159.9.9,0,0,0,.3-.466,2.716,2.716,0,0,0,.093-.774v-.9h2.369v.728a3.55,3.55,0,0,1-.821,2.518A3.268,3.268,0,0,1,266.154-189.3ZM265.2-196h1.9v-1.026a3.574,3.574,0,0,0-.093-.9.913.913,0,0,0-.3-.5.927.927,0,0,0-.578-.159.827.827,0,0,0-.541.168,1,1,0,0,0-.3.56,5.126,5.126,0,0,0-.093,1.119Zm8.935,6.7a3.388,3.388,0,0,1-2.238-.728,4.008,4.008,0,0,1-1.25-2.127l1.884-.728a3.562,3.562,0,0,0,.6,1.343,1.184,1.184,0,0,0,.97.466.912.912,0,0,0,.672-.224.832.832,0,0,0,.224-.616,1.327,1.327,0,0,0-.27-.811,5.8,5.8,0,0,0-.923-.9l-1.306-1.1a6.644,6.644,0,0,1-1.147-1.259,2.8,2.8,0,0,1-.438-1.614,2.721,2.721,0,0,1,.4-1.5,2.693,2.693,0,0,1,1.1-.97,3.473,3.473,0,0,1,1.558-.345,2.875,2.875,0,0,1,2.1.774,3.639,3.639,0,0,1,1.017,2.024l-1.66.709a3.82,3.82,0,0,0-.271-.83,1.83,1.83,0,0,0-.457-.625.966.966,0,0,0-.653-.243.827.827,0,0,0-.625.243.852.852,0,0,0-.233.616,1.052,1.052,0,0,0,.27.653,6.014,6.014,0,0,0,.774.765l1.324,1.194a9.971,9.971,0,0,1,.821.8,4.092,4.092,0,0,1,.653.961,2.737,2.737,0,0,1,.261,1.222,2.779,2.779,0,0,1-.42,1.567,2.646,2.646,0,0,1-1.138.961A3.81,3.81,0,0,1,274.138-189.3Z" transform="translate(-11.013 400.972)"/>
    <path id="Path_6" data-name="Path 6" d="M0,0H265.862V4H0Z" transform="translate(0.397 185.085)"/>
    <path id="Path_5" data-name="Path 5" d="M0,0H4V26.191H0Z" transform="translate(122.546 188.07)"/>
    <g id="Group_2" data-name="Group 2" transform="translate(69.939 -15.466)">
      <circle id="Ellipse_1" data-name="Ellipse 1" cx="63.608" cy="63.608" r="63.608" transform="translate(0 15.73)"/>
      <g id="Mask_Group_2" data-name="Mask Group 2" transform="translate(0 15.729)" clip-path="url(#clip-path)">
        <path id="Path_8" data-name="Path 8" d="M72.558,63.453V-59.94h-38.2Q24.1-59.94,17.5-56.078A23.587,23.587,0,0,0,7.67-44.842Q4.44-37.468,4.44-26.935q0,13.2,4.354,20.154a22.633,22.633,0,0,0,11.8,9.621A49.286,49.286,0,0,0,37.305,5.509H47.417V63.453Zm-25.14-75.5H38.99q-4.635,0-7.022-1.685a8.121,8.121,0,0,1-3.16-5.056,39.351,39.351,0,0,1-.772-8.567,41.078,41.078,0,0,1,.632-7.654,8.7,8.7,0,0,1,3.02-5.267q2.388-1.966,7.444-1.966h8.286Z" transform="translate(1.3 70.543)" fill="#fff"/>
        <path id="Path_7" data-name="Path 7" d="M4.44,66.773V-59.94H35.76A69.8,69.8,0,0,1,55.7-57.412a24.192,24.192,0,0,1,13.132,9.059q4.705,6.531,4.705,18.469a62.586,62.586,0,0,1-1.124,12.5A23.263,23.263,0,0,1,68.274-7.9a22.783,22.783,0,0,1-8.638,6.671L76.191,49.18H50.208L36.743,2.841H29.58V66.773Zm25.14-78.4H36.6q5.337,0,8.286-1.9A10.056,10.056,0,0,0,49.033-19a27.482,27.482,0,0,0,1.194-8.638q0-7.3-2.669-11.376t-9.831-4.073H29.58Z" transform="translate(44.959 70.543)" fill="#fff"/>
      </g>
    </g>
  </g>
</svg>
